<svg width="56" height="56" viewBox="0 0 56 56" fill="none" xmlns="http://www.w3.org/2000/svg">
<rect width="56" height="56" fill="#FFE167"/>
<path d="M34.5 31.5V34.1602H21.5V31.5H34.5Z" fill="#FFFCED" stroke="#FFFCED"/>
<path d="M27.5 4.5C35.232 4.5 41.5 10.768 41.5 18.5C41.5 22.3735 39.9276 26.2586 37.377 29.1738C34.8273 32.0878 31.3313 34 27.5 34C23.6687 34 20.1727 32.0878 17.623 29.1738C15.0724 26.2586 13.5 22.3735 13.5 18.5C13.5 10.768 19.768 4.5 27.5 4.5Z" fill="#FFFCED" stroke="#FFFCED"/>
<path d="M35 32.6666C35.4667 30.3333 36.6333 28.7 38.5 26.8333C40.8333 24.7333 42 21.7 42 18.6666C42 14.9536 40.525 11.3926 37.8995 8.76713C35.274 6.14162 31.713 4.66663 28 4.66663C24.287 4.66663 20.726 6.14162 18.1005 8.76713C15.475 11.3926 14 14.9536 14 18.6666C14 21 14.4667 23.8 17.5 26.8333C19.1333 28.4666 20.5333 30.3333 21 32.6666" fill="#FFFCED"/>
<path d="M35 32.6666C35.4667 30.3333 36.6333 28.7 38.5 26.8333C40.8333 24.7333 42 21.7 42 18.6666C42 14.9536 40.525 11.3926 37.8995 8.76713C35.274 6.14162 31.713 4.66663 28 4.66663C24.287 4.66663 20.726 6.14162 18.1005 8.76713C15.475 11.3926 14 14.9536 14 18.6666C14 21 14.4667 23.8 17.5 26.8333C19.1333 28.4666 20.5333 30.3333 21 32.6666" stroke="#FFFCED" stroke-width="4" stroke-linecap="round" stroke-linejoin="round"/>
<path d="M21 42H35" stroke="#2E2E2E" stroke-width="4" stroke-linecap="round" stroke-linejoin="round"/>
<path d="M23.3333 51.3334H32.6666" stroke="#2E2E2E" stroke-width="4" stroke-linecap="round" stroke-linejoin="round"/>
</svg>
