<svg width="38" height="50" viewBox="0 0 38 50" fill="none" xmlns="http://www.w3.org/2000/svg">
<g clip-path="url(#clip0_351_132)">
<path d="M30.2593 94.3924C2.95556 94.3924 -24.2074 94.3924 -51.3704 94.3924C-51.3704 48.0961 -51.3704 1.7998 -51.3704 -44.4965C-4.45681 -44.4965 42.4567 -44.4965 89.3703 -44.4965C89.3703 1.79972 89.3703 48.096 89.3703 94.3923C69.7136 94.3924 50.0568 94.3924 30.2593 94.3924ZM15.6169 34.2174C15.6169 34.7566 15.6169 35.2959 15.6169 35.9836C18.0334 35.9836 20.2943 35.9836 22.9957 35.9836C21.3753 37.5587 20.0586 38.8476 18.7268 40.1212C18.5689 40.2722 18.3297 40.4308 18.1271 40.4321C15.1449 40.452 12.1625 40.4458 9.06392 40.4458C9.06392 31.0754 9.06392 21.8867 9.06392 12.657C5.84043 12.657 2.73816 12.657 -0.332882 12.657C-0.332882 25.1411 -0.332882 37.5139 -0.332882 49.8525C7.12188 49.8525 14.4749 49.8645 21.8276 49.8219C22.2525 49.8194 22.7503 49.4494 23.0856 49.1222C24.9379 47.3144 26.7503 45.4667 28.8723 43.3356C28.8723 45.8034 28.8723 47.8459 28.8723 49.8586C32.1476 49.8586 35.2601 49.8586 38.3459 49.8586C38.3459 42.0555 38.3459 34.351 38.3459 26.6346C30.7404 26.6346 23.2241 26.6346 15.6169 26.6346C15.6169 29.1505 15.6169 31.549 15.6169 34.2174ZM28.8952 18.1359C28.8952 19.1819 28.8952 20.2278 28.8952 21.2801C32.1553 21.2801 35.2342 21.2801 38.3711 21.2801C38.3711 14.1672 38.3711 7.111 38.3711 0.0239525C35.2032 0.0239525 32.0933 0.0239525 28.8952 0.0239525C28.8952 6.02607 28.8952 11.9432 28.8952 18.1359ZM24.6859 21.3334C24.8436 20.9721 25.1303 20.6134 25.1377 20.2491C25.1811 18.1259 25.159 16.0013 25.159 13.8772C25.159 11.2595 25.159 8.64187 25.159 5.97196C21.9063 5.97196 18.7972 5.97196 15.682 5.97196C15.682 11.1157 15.682 16.1767 15.682 21.3365C18.6369 21.3365 21.5273 21.3365 24.6859 21.3334Z" fill="white"/>
<path d="M15.6169 34.0824C15.6169 31.549 15.6169 29.1506 15.6169 26.6346C23.2241 26.6346 30.7404 26.6346 38.3459 26.6346C38.3459 34.3511 38.3459 42.0555 38.3459 49.8586C35.2601 49.8586 32.1476 49.8586 28.8723 49.8586C28.8723 47.846 28.8723 45.8034 28.8723 43.3356C26.7503 45.4668 24.9379 47.3144 23.0856 49.1222C22.7503 49.4495 22.2525 49.8195 21.8276 49.8219C14.4749 49.8645 7.12188 49.8526 -0.332886 49.8526C-0.332886 37.5139 -0.332886 25.1411 -0.332886 12.657C2.73816 12.657 5.84043 12.657 9.06392 12.657C9.06392 21.8867 9.06392 31.0754 9.06392 40.4458C12.1625 40.4458 15.1449 40.452 18.1271 40.4322C18.3297 40.4308 18.5689 40.2722 18.7268 40.1212C20.0586 38.8476 21.3753 37.5587 22.9957 35.9837C20.2943 35.9837 18.0334 35.9837 15.6169 35.9837C15.6169 35.2959 15.6169 34.7566 15.6169 34.0824Z" fill="#3078B3"/>
<path d="M28.8952 17.9981C28.8952 12.2797 28.8952 6.68424 28.8952 1.02399C28.8952 0.471709 29.3429 0.0239563 29.8952 0.0239563C32.4086 0.0239563 34.8765 0.0239563 37.371 0.0239563C37.9233 0.0239563 38.371 0.471691 38.371 1.02398C38.371 7.44291 38.371 13.8399 38.371 20.2801C38.371 20.8324 37.9233 21.2801 37.371 21.2801C34.8982 21.2801 32.4457 21.2801 29.8952 21.2801C29.343 21.2801 28.8951 20.8324 28.8951 20.2801C28.8951 19.5532 28.8951 18.8079 28.8952 17.9981Z" fill="#1E2124"/>
<path d="M24.844 20.9558C24.6696 21.2032 24.3757 21.3351 24.073 21.3352C21.5618 21.3364 19.1365 21.3365 16.682 21.3365C16.1298 21.3365 15.682 20.8888 15.682 20.3365C15.682 15.8556 15.682 11.4407 15.682 6.97198C15.682 6.4197 16.1297 5.97197 16.682 5.97197C19.1435 5.97197 21.6112 5.97197 24.1589 5.97197C24.7112 5.97197 25.159 6.41969 25.159 6.97197C25.159 9.29703 25.159 11.5871 25.159 13.8772C25.159 16.0013 25.1811 18.1259 25.1377 20.2491C25.1329 20.4861 25.0098 20.7208 24.844 20.9558Z" fill="#1E2124"/>
</g>
<defs>
<clipPath id="clip0_351_132">
<rect width="38" height="50" fill="white"/>
</clipPath>
</defs>
</svg>
