<svg width="56" height="56" viewBox="0 0 56 56" fill="none" xmlns="http://www.w3.org/2000/svg">
<rect width="56" height="56" fill="#CFC2FF"/>
<path d="M16.2675 14L22 12H28H34L36.5 9L41 7L42 8V11L42.5 14L45 18L46.5 23.5H50L51.5 28L50 33L44.5 35.5L42 38V47H33L32 40.5L29 40L26 40.5L25 46.5H16V41L15.7675 37.2459L13.5 34L12 30.5V25.5L13 20L16.2675 14Z" fill="#FFCECE"/>
<path d="M25.6667 39.6667H32.6667V44.3333C32.6667 44.9522 32.9125 45.5457 33.3501 45.9833C33.7877 46.4208 34.3812 46.6667 35 46.6667H39.6667C40.2855 46.6667 40.879 46.4208 41.3166 45.9833C41.7542 45.5457 42 44.9522 42 44.3333V37.3333C43.0869 36.9715 44.0746 36.3613 44.8846 35.5513C45.6947 34.7412 46.3048 33.7536 46.6667 32.6667H49C49.6189 32.6667 50.2124 32.4208 50.6499 31.9833C51.0875 31.5457 51.3334 30.9522 51.3334 30.3333V25.6667C51.3334 25.0478 51.0875 24.4543 50.6499 24.0168C50.2124 23.5792 49.6189 23.3333 49 23.3333H46.6667C46.6667 21.5221 46.245 19.7358 45.435 18.1158C44.625 16.4959 43.449 15.0867 42 14V7C40.5511 7 39.122 7.33735 37.826 7.98535C36.53 8.63334 35.4027 9.57417 34.5334 10.7333L33.8334 11.6667H25.6667C21.9537 11.6667 18.3927 13.1417 15.7672 15.7672C13.1417 18.3927 11.6667 21.9536 11.6667 25.6667V28C11.6667 29.8112 12.0884 31.5975 12.8984 33.2175C13.7084 34.8375 14.8844 36.2466 16.3334 37.3333V44.3333C16.3334 44.9522 16.5792 45.5457 17.0168 45.9833C17.4544 46.4208 18.0478 46.6667 18.6667 46.6667H23.3334C23.9522 46.6667 24.5457 46.4208 24.9833 45.9833C25.4209 45.5457 25.6667 44.9522 25.6667 44.3333V39.6667Z" stroke="#FFCECE" stroke-width="4" stroke-linecap="round" stroke-linejoin="round"/>
<path d="M37.3333 23.3334H37.3571" stroke="black" stroke-width="4" stroke-linecap="round" stroke-linejoin="round"/>
<path d="M4.66669 18.6666V21C4.66669 22.2376 5.15835 23.4246 6.03352 24.2998C6.90869 25.175 8.09568 25.6666 9.33335 25.6666H11.6667" stroke="#FFCECE" stroke-width="4" stroke-linecap="round" stroke-linejoin="round"/>
</svg>
