<svg width="56" height="56" viewBox="0 0 56 56" fill="none" xmlns="http://www.w3.org/2000/svg">
<rect width="56" height="56" fill="#A7AAEA"/>
<path d="M28 3L36.3571 9L46 11.6667V31.6667V33V37L44.7143 40.3333L42.7857 44.3333L35.7143 49L28 53L22.2143 50.3333L17.7143 47L15.1429 44.3333L10.6429 38.3333L10 31.6667V11.6667L19.6429 9L28 3Z" fill="#FFF36E"/>
<path d="M47.4782 30.4348C47.4782 42.6087 38.9565 48.6957 28.8278 52.2261C28.2974 52.4059 27.7213 52.3973 27.1965 52.2018C17.0435 48.6957 8.52173 42.6087 8.52173 30.4348V13.3913C8.52173 12.7456 8.77825 12.1263 9.23486 11.6697C9.69147 11.2131 10.3108 10.9566 10.9565 10.9566C15.8261 10.9566 21.913 8.03483 26.1496 4.33396C26.6654 3.89326 27.3215 3.65112 28 3.65112C28.6784 3.65112 29.3346 3.89326 29.8504 4.33396C34.1113 8.05917 40.1739 10.9566 45.0435 10.9566C45.6892 10.9566 46.3085 11.2131 46.7651 11.6697C47.2217 12.1263 47.4782 12.7456 47.4782 13.3913V30.4348Z" stroke="#FFF36E" stroke-width="4" stroke-linecap="round" stroke-linejoin="round"/>
<path d="M20.6957 28L25.5652 32.8696L35.3044 23.1304" stroke="black" stroke-width="4" stroke-linecap="round" stroke-linejoin="round"/>
</svg>
