<svg width="235" height="50" viewBox="0 0 235 50" fill="none" xmlns="http://www.w3.org/2000/svg">
<path d="M47.36 32V18H56.62V20.26H50.16V23.8H56.02V25.98H50.16V29.74H56.62V32H47.36ZM63.0592 32V18H65.8592L72.1992 27.5V18H74.9992V32H72.1992L65.8592 22.52V32H63.0592ZM86.5872 32.24C85.5739 32.24 84.6672 32.0667 83.8672 31.72C83.0805 31.3733 82.4539 30.8667 81.9872 30.2C81.5205 29.5333 81.2805 28.7267 81.2672 27.78H84.2272C84.2405 28.18 84.3405 28.54 84.5272 28.86C84.7272 29.18 85.0005 29.4333 85.3472 29.62C85.6939 29.8067 86.1005 29.9 86.5672 29.9C86.9805 29.9 87.3339 29.8333 87.6272 29.7C87.9339 29.5667 88.1672 29.38 88.3272 29.14C88.5005 28.9 88.5872 28.6067 88.5872 28.26C88.5872 27.8867 88.4872 27.5667 88.2872 27.3C88.1005 27.0333 87.8405 26.8067 87.5072 26.62C87.1739 26.4333 86.7872 26.2667 86.3472 26.12C85.9205 25.96 85.4605 25.8 84.9672 25.64C83.8605 25.28 83.0139 24.8 82.4272 24.2C81.8539 23.6 81.5672 22.8 81.5672 21.8C81.5672 20.9467 81.7672 20.22 82.1672 19.62C82.5805 19.02 83.1472 18.56 83.8672 18.24C84.6005 17.92 85.4272 17.76 86.3472 17.76C87.2939 17.76 88.1272 17.9267 88.8472 18.26C89.5672 18.58 90.1339 19.0467 90.5472 19.66C90.9739 20.2733 91.2005 21 91.2272 21.84H88.2272C88.2139 21.5333 88.1272 21.2533 87.9672 21C87.8072 20.7333 87.5872 20.52 87.3072 20.36C87.0272 20.2 86.6939 20.12 86.3072 20.12C85.9739 20.1067 85.6672 20.16 85.3872 20.28C85.1205 20.3867 84.9072 20.5533 84.7472 20.78C84.5872 20.9933 84.5072 21.2667 84.5072 21.6C84.5072 21.9333 84.5872 22.2133 84.7472 22.44C84.9072 22.6533 85.1272 22.84 85.4072 23C85.7005 23.16 86.0405 23.3133 86.4272 23.46C86.8139 23.5933 87.2339 23.7333 87.6872 23.88C88.3939 24.12 89.0405 24.4067 89.6272 24.74C90.2139 25.06 90.6805 25.48 91.0272 26C91.3872 26.52 91.5672 27.2067 91.5672 28.06C91.5672 28.8067 91.3739 29.5 90.9872 30.14C90.6005 30.7667 90.0405 31.2733 89.3072 31.66C88.5739 32.0467 87.6672 32.24 86.5872 32.24ZM97.8561 32V18H100.656V32H97.8561ZM107.383 32V18H110.183L116.523 27.5V18H119.323V32H116.523L110.183 22.52V32H107.383ZM125.131 32L130.231 18H133.411L138.511 32H135.551L131.811 21.18L128.051 32H125.131ZM127.371 28.86L128.111 26.68H135.311L136.031 28.86H127.371ZM152.958 32V18H158.258C159.391 18 160.324 18.1933 161.058 18.58C161.804 18.9667 162.358 19.4867 162.718 20.14C163.091 20.78 163.278 21.5 163.278 22.3C163.278 23.0467 163.098 23.7467 162.738 24.4C162.391 25.0533 161.844 25.58 161.098 25.98C160.351 26.3667 159.398 26.56 158.238 26.56H155.758V32H152.958ZM160.198 32L157.338 25.86H160.378L163.398 32H160.198ZM155.758 24.52H158.098C158.884 24.52 159.464 24.3267 159.838 23.94C160.224 23.5533 160.418 23.04 160.418 22.4C160.418 21.7733 160.231 21.2733 159.858 20.9C159.484 20.5267 158.891 20.34 158.078 20.34H155.758V24.52ZM169.633 32V18H178.893V20.26H172.433V23.8H178.293V25.98H172.433V29.74H178.893V32H169.633ZM185.333 32V18H188.133L194.473 27.5V18H197.273V32H194.473L188.133 22.52V32H185.333ZM204.001 32V18H208.761C210.374 18 211.714 18.2933 212.781 18.88C213.847 19.4533 214.634 20.2667 215.141 21.32C215.661 22.36 215.921 23.5867 215.921 25C215.921 26.4 215.661 27.6267 215.141 28.68C214.634 29.7333 213.847 30.5533 212.781 31.14C211.727 31.7133 210.381 32 208.741 32H204.001ZM206.801 29.6H208.601C209.721 29.6 210.601 29.42 211.241 29.06C211.894 28.6867 212.361 28.16 212.641 27.48C212.921 26.7867 213.061 25.96 213.061 25C213.061 24.04 212.921 23.22 212.641 22.54C212.361 21.8467 211.894 21.3133 211.241 20.94C210.601 20.5667 209.721 20.38 208.601 20.38H206.801V29.6ZM220.401 32L225.501 18H228.681L233.781 32H230.821L227.081 21.18L223.321 32H220.401ZM222.641 28.86L223.381 26.68H230.581L231.301 28.86H222.641Z" fill="#112421"/>
<path d="M23.3782 30.8519C23.3782 29.1646 23.3782 27.5673 23.3782 25.8917C28.3779 25.8917 33.3179 25.8917 38.3165 25.8917C38.3165 31.0308 38.3165 36.162 38.3165 41.3589C36.2884 41.3589 34.2427 41.3589 32.0901 41.3589C32.0901 40.0184 32.0901 38.6581 32.0901 37.0145C30.6954 38.4339 29.5043 39.6644 28.2869 40.8684C28.0665 41.0864 27.7393 41.3328 27.4601 41.3344C22.6276 41.3628 17.7949 41.3548 12.8954 41.3548C12.8954 33.1373 12.8954 24.897 12.8954 16.5826C14.9138 16.5826 16.9527 16.5826 19.0713 16.5826C19.0713 22.7296 19.0713 28.8492 19.0713 35.0899C21.1078 35.0899 23.0679 35.0941 25.0279 35.0808C25.1611 35.0799 25.3184 34.9743 25.4221 34.8738C26.2974 34.0255 27.1628 33.1671 28.2278 32.1181C26.4523 32.1181 24.9664 32.1181 23.3782 32.1181C23.3782 31.6601 23.3782 31.3009 23.3782 30.8519Z" fill="#0066BA"/>
<path d="M32.1051 20.1398C32.1051 16.1072 32.1051 12.1664 32.1051 8.16898C34.207 8.16898 36.2509 8.16898 38.333 8.16898C38.333 12.8889 38.333 17.5884 38.333 22.3256C36.2713 22.3256 34.2478 22.3256 32.1051 22.3256C32.1051 21.6248 32.1051 20.9282 32.1051 20.1398Z" fill="#112421"/>
<path d="M29.2506 22.3621C27.2628 22.3631 25.3631 22.3631 23.421 22.3631C23.421 18.9267 23.421 15.5561 23.421 12.1303C25.4685 12.1303 27.5118 12.1303 29.6496 12.1303C29.6496 13.9085 29.6496 15.6519 29.6496 17.3952C29.6496 18.8099 29.6642 20.2248 29.6356 21.6389C29.6308 21.8815 29.4424 22.1205 29.2506 22.3621Z" fill="#112421"/>
</svg>
